<svg width="41" height="40" viewBox="0 0 41 40" fill="none" xmlns="http://www.w3.org/2000/svg">
<path d="M27.1041 40.0001V33.3334C30.793 33.3334 33.7708 30.3556 33.7708 26.6667H40.4375C40.4375 34.0445 34.4597 40.0001 27.1041 40.0001Z" fill="#FFD11A"/>
<path d="M27.1042 40.0001V33.3334C23.4153 33.3334 20.4375 30.3556 20.4375 26.6667H13.7708C13.7708 34.0445 19.7486 40.0001 27.1042 40.0001Z" fill="#FFD11A"/>
<path d="M0.4375 26.6665H7.10417C7.10417 30.3554 10.0819 33.3332 13.7708 33.3332V39.9998C6.41528 39.9998 0.4375 34.0443 0.4375 26.6665Z" fill="#FFD11A"/>
<path d="M0.4375 26.6666H7.10417C7.10417 22.9777 10.0819 19.9999 13.7708 19.9999V13.3333C6.41528 13.3333 0.4375 19.311 0.4375 26.6666Z" fill="#FFD11A"/>
<path d="M13.7708 0V6.66667C10.0819 6.66667 7.10417 9.64444 7.10417 13.3333H0.4375C0.4375 5.97778 6.41528 0 13.7708 0Z" fill="#FFD11A"/>
<path d="M13.7708 0V6.66667C17.4597 6.66667 20.4375 9.64444 20.4375 13.3333H27.1042C27.1042 5.97778 21.1264 0 13.7708 0Z" fill="#FFD11A"/>
<path d="M40.4375 13.3333H33.7708C33.7708 9.64444 30.7931 6.66667 27.1042 6.66667V0C34.4597 0 40.4375 5.97778 40.4375 13.3333Z" fill="#FFD11A"/>
<path d="M40.4375 13.3333H33.7709C33.7709 17.0221 30.7931 19.9999 27.1042 19.9999V26.6666C34.4598 26.6666 40.4375 20.711 40.4375 13.3333Z" fill="#FFD11A"/>
</svg>
